P2
64 64
255
0 0 0 0 53 120 141 143 120 120 120 120 121 121 122 122 123 123 124 124 124 125 125 125 126 127 126 127 127 127 127 127 127 127 127 127 127 127 127 127 127 127 127 126 126 126 125 125 125 124 124 124 124 124 123 123 146 142 87 38 0 0 0 0 0 0 0 52 162 174 127 60 3 2 2 2 4 4 4 4 4 4 3 3 3 2 2 2 2 2 2 1 1 1 1 1 1 1 1 1 1 1 1 1 1 1 1 2 2 2 2 2 2 2 3 3 2 3 4 4 62 130 178 165 54 0 0 0 0 0 51 159 166 61 4 2 1 1 1 0 0 1 1 1 1 1 1 1 1 0 0 1 0 1 1 1 0 0 0 0 0 0 0 0 0 0 0 0 0 0 0 1 1 0 1 0 0 1 1 1 0 1 2 1 2 5 63 170 163 53 0 0 0 51 158 164 61 4 1 1 1 1 1 1 1 1 1 1 1 1 1 1 1 0 0 1 0 1 1 0 0 0 0 0 0 0 0 0 0 0 0 0 0 0 1 0 1 0 1 0 0 1 1 1 1 1 1 0 1 1 4 64 169 162 53 0 0 114 168 61 4 2 1 1 0 0 1 1 2 3 5 7 8 8 8 8 8 8 7 7 7 7 7 7 7 7 7 7 7 7 7 7 7 7 7 7 7 7 7 7 7 7 7 7 6 4 2 1 1 1 0 1 2 1 1 6 63 172 116 0 49 162 126 10 1 1 2 2 1 0 1 6 9 6 2 5 6 6 5 5 5 4 3 3 3 3 2 2 1 1 1 1 1 1 1 1 1 1 1 1 1 1 2 2 3 3 3 3 2 2 8 10 6 1 1 2 1 0 1 2 11 129 166 51 103 163 66 5 1 0 1 2 2 5 7 3 15 15 4 3 5 6 6 7 7 8 9 9 10 11 12 12 12 12 12 12 12 12 12 12 12 12 12 12 12 12 12 12 11 10 10 10 8 2 9 10 2 7 4 1 0 1 2 1 6 68 167 107 119 156 36 0 2 1 0 1 5 4 12 13 9 34 43 44 45 45 44 45 45 45 45 45 45 45 45 45 45 45 45 45 45 45 45 45 45 45 45 45 45 45 45 45 45 45 45 46 45 44 37 14 9 8 4 4 1 2 1 0 0 38 161 123 111 140 45 1 1 2 1 4 3 15 8 33 55 47 30 19 16 15 15 15 15 15 15 14 13 12 11 12 13 14 14 14 14 14 14 14 14 14 14 14 14 14 14 14 15 15 15 16 19 30 47 56 36 3 11 4 4 1 1 0 1 48 143 115 112 116 43 1 1 2 2 5 13 9 42 51 15 11 16 14 13 13 13 13 14 15 13 13 39 63 72 64 39 12 14 14 14 14 14 14 14 15 15 16 16 15 14 14 13 13 13 13 14 16 11 15 51 45 4 9 5 1 1 1 1 44 115 116 115 115 38 1 1 1 5 5 17 32 51 5 15 12 9 8 8 7 7 7 6 26 75 111 118 112 109 112 119 101 46 6 7 7 7 8 6 27 55 70 61 35 9 8 7 7 7 8 8 9 12 15 5 51 35 12 2 5 1 1 1 39 113 119 116 130 35 1 1 1 6 21 4 55 15 15 11 8 6 5 4 3 3 3 49 112 120 74 19 19 32 17 31 102 123 56 3 3 2 29 84 119 120 114 118 122 98 43 5 3 3 4 5 6 8 11 15 15 56 8 16 7 1 1 1 37 130 119 115 139 35 1 1 1 4 25 25 51 10 12 8 4 2 1 0 0 0 46 121 97 2 58 71 66 62 64 67 22 89 120 41 3 44 112 119 63 9 13 1 48 110 124 66 13 1 0 1 2 4 8 12 10 51 29 20 5 1 1 1 36 140 119 115 141 35 1 0 1 1 21 34 40 17 10 6 2 1 0 0 0 17 104 106 17 67 49 29 17 15 20 38 64 14 111 95 44 118 101 5 56 64 61 64 64 19 79 126 69 9 0 0 1 2 6 10 17 40 36 16 0 2 2 1 36 142 118 115 141 35 1 0 2 4 18 34 35 16 9 5 1 0 0 0 1 49 124 35 67 39 18 16 15 15 16 17 37 61 50 109 101 103 10 60 44 26 20 25 42 67 38 75 126 51 0 0 0 1 5 9 16 35 36 13 2 2 2 1 36 142 117 115 141 35 2 1 2 5 17 33 33 15 9 5 1 0 0 0 2 77 115 14 61 19 16 15 12 12 15 16 19 52 7 69 80 9 57 37 22 21 21 21 22 36 67 25 107 105 15 0 0 1 5 9 15 33 35 13 3 2 2 1 36 141 117 114 140 35 2 1 2 5 18 32 32 14 8 4 0 0 0 0 2 87 108 30 55 15 15 12 5 7 13 16 16 32 43 28 20 46 37 22 22 20 19 19 21 22 43 68 44 126 45 1 0 0 4 8 14 32 34 14 3 2 2 1 36 140 116 114 140 34 1 1 2 5 19 32 32 14 8 4 0 0 0 0 2 80 111 22 57 15 15 12 7 8 13 16 17 18 56 29 50 42 22 22 20 17 12 13 18 21 26 69 3 123 69 1 0 0 4 8 14 32 34 15 4 2 2 1 36 140 116 113 139 34 1 1 2 6 20 32 33 14 8 4 0 0 1 1 2 59 120 5 64 19 16 15 13 13 15 16 17 23 54 9 50 24 20 21 20 16 5 8 17 20 21 68 12 121 73 2 0 0 4 8 14 33 34 16 4 2 2 2 36 140 115 112 139 35 1 1 2 6 20 31 33 14 8 5 1 9 28 44 49 29 108 46 61 29 16 16 16 17 29 47 59 61 53 24 48 40 33 24 20 18 15 15 19 21 30 69 17 126 56 1 0 0 4 8 14 33 33 17 4 2 1 1 36 139 114 111 137 36 1 1 2 6 21 31 33 14 9 14 62 107 124 121 116 108 94 63 53 43 16 17 22 46 65 44 1 45 79 81 42 12 53 55 33 20 20 20 21 21 46 57 71 120 27 1 0 0 4 8 14 33 33 18 5 2 1 1 37 137 113 110 136 35 3 3 2 7 21 31 33 15 22 90 126 98 47 9 7 13 20 38 19 52 25 21 49 48 12 79 110 116 116 116 116 98 39 40 63 34 21 21 20 32 61 7 120 81 4 0 0 0 4 8 14 33 33 18 5 2 4 4 36 136 112 110 136 34 2 4 3 8 22 31 32 11 83 116 36 51 82 81 75 71 69 72 48 23 43 42 28 55 113 100 60 30 15 19 44 84 115 71 29 58 29 20 27 50 16 99 111 29 1 1 0 0 4 8 14 33 32 19 7 4 4 3 34 135 112 110 135 33 1 1 2 9 24 30 30 41 118 39 69 72 43 24 18 17 16 31 64 39 21 23 64 115 70 25 13 16 17 17 15 19 56 112 74 30 44 31 51 44 40 78 74 83 61 31 7 2 5 8 14 33 31 21 8 3 1 1 34 135 111 110 135 33 1 0 3 8 25 30 35 83 98 44 74 31 20 21 21 21 21 19 34 61 42 56 115 67 19 15 17 17 17 17 18 17 16 56 116 49 38 52 41 9 37 60 89 102 118 122 92 37 3 9 16 33 31 22 7 2 1 1 34 134 111 110 135 33 1 0 4 7 25 31 52 105 59 80 51 19 21 20 19 20 21 20 16 55 40 98 95 23 16 17 17 17 16 16 17 18 17 19 83 107 21 20 57 70 60 58 59 47 15 45 113 120 48 10 18 34 33 23 7 3 1 2 34 134 111 110 135 33 1 0 4 7 25 32 68 110 29 87 39 23 20 14 8 16 21 21 17 68 2 111 55 13 17 17 16 14 13 14 15 17 17 15 42 120 54 76 69 60 53 52 57 67 80 81 22 101 119 29 18 35 34 23 7 3 1 1 33 133 110 110 135 33 1 0 4 7 25 31 74 111 19 87 35 24 24 17 10 17 21 21 24 77 36 117 27 16 17 17 14 10 7 9 13 16 17 16 17 113 56 75 27 7 9 9 8 8 18 49 89 14 126 78 17 36 34 24 7 3 0 1 34 133 110 110 135 33 1 0 3 7 25 31 67 112 33 85 39 22 24 21 21 24 25 23 30 78 56 120 14 17 18 16 13 7 1 6 12 16 18 17 11 108 64 72 34 9 12 12 12 14 15 18 66 83 81 115 10 35 34 24 7 3 0 2 34 133 110 110 135 33 1 0 3 7 24 32 50 108 70 78 55 21 23 23 22 23 24 22 22 77 51 126 22 18 19 18 14 10 6 9 13 17 19 19 15 116 63 80 37 14 16 15 15 17 18 16 41 97 37 124 14 34 34 25 7 3 0 1 33 133 110 110 136 33 1 0 3 7 24 34 36 80 115 28 82 40 22 20 21 21 20 14 9 74 24 127 43 17 20 19 17 15 13 14 16 18 20 18 30 126 35 91 29 17 17 13 8 12 16 17 32 96 15 123 22 34 33 25 7 4 0 1 33 132 110 110 136 33 1 0 3 7 23 34 34 32 123 79 45 84 67 51 40 35 35 40 53 70 33 123 77 15 19 19 18 18 17 17 18 19 19 15 67 119 16 82 16 18 16 13 4 11 16 17 35 97 20 123 20 34 33 25 7 4 0 1 33 132 110 111 136 34 2 1 3 7 22 34 35 13 62 131 98 14 45 71 78 78 73 61 44 18 12 84 118 39 15 19 19 19 18 18 19 19 16 35 113 68 65 50 12 18 18 16 14 16 17 15 51 98 52 123 10 35 33 25 7 4 0 1 33 132 110 111 136 34 1 0 2 6 22 35 36 17 8 58 119 131 89 27 25 9 15 30 47 56 55 5 109 104 37 15 17 19 19 19 18 15 33 98 125 30 77 19 9 16 18 18 17 17 16 24 80 73 98 108 13 35 34 25 8 3 0 1 33 133 110 111 137 34 1 1 2 6 22 35 36 16 9 3 23 66 112 44 63 72 73 66 50 32 38 52 15 111 115 67 31 14 13 13 24 58 109 123 68 49 77 50 29 15 14 16 15 16 30 68 96 10 133 65 18 36 34 24 8 3 0 2 34 134 109 112 137 34 2 1 3 6 21 35 36 16 9 5 8 101 124 15 64 34 26 26 27 27 29 46 52 5 85 123 123 111 102 107 120 128 102 37 20 15 58 34 36 67 67 63 69 81 97 90 9 114 109 17 17 36 34 24 8 3 1 2 45 135 99 112 138 35 2 1 3 6 20 35 36 16 9 6 36 134 61 68 47 26 27 26 26 27 27 29 40 48 24 45 90 101 102 99 82 41 11 31 28 22 60 62 54 33 10 39 51 46 13 53 117 117 40 8 15 30 32 20 7 4 16 29 68 126 81 113 139 35 1 1 3 6 19 36 36 16 9 7 66 135 8 76 33 27 25 22 21 25 27 28 25 25 48 24 28 22 17 26 41 46 34 18 17 34 34 105 61 113 109 100 100 106 120 137 115 57 19 15 18 17 25 6 15 23 43 55 62 98 69 114 139 35 1 1 2 5 18 36 36 16 9 7 79 132 14 76 27 27 23 13 10 21 26 28 25 33 51 6 28 19 25 28 25 18 14 14 14 31 21 114 112 14 51 71 74 83 92 74 40 24 16 11 8 19 27 7 33 54 54 33 17 83 75 114 140 35 1 1 2 5 17 36 36 16 9 7 69 134 5 79 36 27 23 15 13 22 26 27 29 54 46 17 29 12 14 15 14 14 15 15 15 23 46 76 133 26 14 18 13 47 45 18 11 24 22 10 10 26 7 36 66 62 28 15 24 92 86 115 140 35 1 1 2 4 16 37 36 16 9 6 40 134 61 72 58 30 26 23 23 25 26 30 52 50 22 19 31 13 15 14 14 13 12 14 15 17 50 42 132 41 20 19 58 41 2 23 25 21 10 11 26 7 36 66 63 30 15 40 25 104 95 115 141 35 2 1 2 3 16 37 36 16 9 5 10 102 126 10 80 53 31 26 26 26 31 54 64 26 66 38 37 15 15 14 13 8 6 11 15 14 51 24 124 42 7 62 41 7 24 24 21 10 11 26 7 35 66 64 30 15 39 39 22 115 103 115 141 36 2 1 2 3 15 38 36 17 9 5 2 42 129 104 23 81 65 43 35 45 65 67 13 125 91 97 28 27 14 15 12 6 5 11 14 19 53 31 111 41 52 54 5 24 24 21 10 10 26 8 35 66 65 31 15 40 38 32 23 124 109 116 142 36 2 1 2 2 14 39 37 18 10 5 2 3 55 132 111 8 64 80 78 77 48 37 125 115 72 131 16 44 20 15 14 11 11 13 16 34 50 63 97 56 69 11 25 24 21 10 10 26 8 34 66 66 31 16 40 38 31 27 25 132 115 117 142 36 2 1 2 0 17 39 44 18 11 6 3 2 4 50 120 136 91 42 24 51 104 137 101 32 36 130 85 33 40 21 14 13 14 21 37 53 2 104 76 59 53 20 25 21 10 10 26 9 34 66 67 32 15 40 38 31 27 24 26 139 120 117 143 36 2 1 2 6 23 31 55 11 14 8 5 3 2 1 28 82 124 133 131 133 116 66 17 2 5 84 136 46 39 50 42 41 47 56 51 4 100 98 36 57 30 26 20 11 9 26 9 33 66 67 32 15 40 38 31 27 23 21 29 145 123 118 144 36 2 1 2 8 18 8 61 17 16 12 8 6 4 4 5 3 15 37 46 33 11 4 4 3 4 23 105 131 63 10 45 49 33 8 67 125 116 29 13 58 15 22 11 8 26 10 33 66 68 34 15 40 38 32 26 23 20 15 33 149 124 117 145 37 2 1 2 6 2 14 38 55 5 16 13 10 9 8 8 8 8 9 9 9 8 7 7 7 7 8 25 90 128 123 110 107 114 125 126 92 25 41 18 58 13 12 8 25 10 32 66 68 34 14 40 39 31 26 23 20 14 8 36 150 124 114 147 42 2 1 2 2 7 11 4 48 55 16 12 18 16 15 14 14 14 14 14 14 14 14 14 14 14 14 15 11 42 82 106 108 93 63 27 10 24 46 21 58 11 8 25 10 31 66 69 35 14 40 39 32 27 23 20 15 7 3 40 151 122 103 151 54 2 1 2 1 5 4 12 4 38 60 51 33 21 17 17 16 16 16 16 16 16 16 16 16 16 16 16 15 14 12 12 12 12 13 14 16 23 46 13 54 22 25 11 31 65 69 36 14 40 39 32 27 23 20 15 8 2 2 52 154 111 79 157 81 2 2 1 0 1 5 6 8 10 14 39 48 50 50 49 49 49 49 49 49 49 49 49 49 49 49 49 49 49 49 49 49 49 49 49 49 51 64 30 54 37 11 31 66 70 36 13 40 39 31 26 23 20 15 8 2 0 3 80 160 85 50 150 113 10 1 0 1 2 2 5 8 2 11 11 1 8 10 10 11 12 12 13 13 14 14 14 14 14 14 14 14 14 14 14 14 14 14 13 13 25 54 15 53 23 31 66 71 37 13 40 39 32 27 23 20 15 8 2 0 0 9 116 155 53 32 119 134 44 0 1 2 1 1 0 2 7 11 8 2 3 4 3 3 3 2 2 2 1 1 1 1 1 1 1 1 1 1 1 1 1 1 2 4 22 54 2 46 23 66 71 38 13 40 39 32 27 23 20 15 8 2 0 0 1 42 140 122 32 24 83 125 84 22 2 2 0 1 1 1 1 1 3 5 7 8 8 8 8 8 8 8 8 8 8 8 8 8 8 8 8 8 8 8 8 8 7 7 23 54 4 33 53 71 39 12 40 39 32 27 24 20 15 8 2 0 0 1 18 86 134 80 24 14 69 95 89 83 29 1 1 2 2 1 1 1 1 1 0 1 1 1 0 0 1 0 0 0 0 0 0 0 0 0 0 0 0 0 0 0 1 4 23 53 18 28 61 40 11 41 39 32 27 23 20 15 8 2 0 0 1 24 77 96 103 62 15 7 63 79 51 105 110 44 6 2 1 1 1 2 1 1 1 1 1 1 1 1 1 0 0 0 0 0 0 0 0 0 0 0 0 0 0 0 1 5 23 48 37 40 38 10 42 41 32 27 23 20 15 8 2 0 1 3 41 107 105 57 86 57 9 3 42 80 29 45 119 115 71 39 14 2 3 4 5 7 7 5 5 5 5 4 5 4 4 4 4 4 4 4 4 4 4 4 4 4 4 4 4 7 25 50 60 39 9 45 50 42 32 26 23 19 12 7 5 9 32 69 122 122 50 33 84 38 5 5 15 65 54 19 46 86 97 115 127 120 107 96 84 69 67 81 92 95 95 96 96 96 96 96 96 96 96 96 96 96 96 96 96 96 96 96 95 94 91 86 67 19 23 34 38 26 38 61 78 88 96 105 118 124 113 103 97 41 26 59 67 14 6 3 4 25 54 41 31 33 28 75 116 135 138 136 132 127 126 130 132 134 134 133 133 133 133 133 133 132 132 132 132 132 132 132 132 133 133 133 132 131 123 97 62 44 56 74 90 97 107 115 123 131 137 140 140 122 80 32 40 20 41 59 27 5 4 0 4 4 18 47 61 42 12 44 21 16 30 37 47 59 60 48 36 32 32 31 31 31 31 31 31 30 30 30 30 30 30 30 30 30 31 31 31 30 30 30 32 35 35 40 55 63 57 42 34 34 34 29 16 24 46 4 45 55 46 19 4 6 0 0 2 5 2 16 58 78 50 35 23 6 7 11 7 5 4 2 3 4 4 4 4 4 3 4 4 4 4 4 4 4 4 4 4 4 4 4 4 4 4 4 4 4 4 2 2 5 4 3 5 8 8 4 6 25 36 51 76 53 14 3 6 4 0 0 0 2 4 2 17 53 69 54 36 23 21 24 25 26 27 27 26 27 27 28 28 28 29 29 29 29 30 30 30 30 30 30 30 30 29 29 29 29 28 28 28 27 27 27 27 27 27 26 25 23 21 19 23 36 56 69 51 16 2 5 2 0 0 0 0 0 2 2 1 5 19 34 36 32 32 36 39 41 41 42 42 43 43 44 44 44 44 45 45 45 45 45 45 45 45 45 45 45 45 45 45 44 44 44 43 43 43 42 42 42 41 41 40 37 33 31 32 36 34 20 5 1 3 2 0 0 0 0 0 0 0 0 1 1 1 0 1 5 8 10 11 12 12 12 12 12 12 12 12 12 12 12 12 12 12 12 12 12 12 12 12 12 12 12 12 12 12 12 12 12 12 12 12 12 12 12 11 11 10 8 5 1 0 1 2 1 0 0 0 0 0 
